<svg width="998" height="906" fill="none" xmlns="http://www.w3.org/2000/svg">

<g filter="url(#filter0_d)"><path d="M396.596 494.47c-5.187 1.235-8.511 6.7-8.245 12.899a185.752 185.752 0 01-26.995 7.56 191.629 191.629 0 01-16.242 2.494 118.35 118.35 0 00-5.596-17.675 50.847 50.847 0 017.882-8.723 48.923 48.923 0 0116.325-9.549c3.836 5.113 10.083 6.998 14.849 4.144 5.375-3.214 6.855-11.205 3.281-17.845-3.56-6.644-10.792-9.438-16.167-6.224-4.891 2.934-6.554 9.829-4.111 16.061-3.505 3.701-8.993 8.17-16.63 10.463a35.721 35.721 0 01-10.11 1.511c-3.668-7.055-7.992-13.595-12.894-19.539 2.469-4.136 5.49-8.629 9.211-13.186a106.251 106.251 0 0115.873-15.79c4.874 3.644 11.118 3.6 14.898-.451 4.343-4.646 3.764-12.839-1.272-18.286-5.036-5.445-12.658-6.079-16.998-1.424-3.769 4.038-3.838 10.755-.477 16.01-3.775 5.367-8.599 11.262-14.733 17.017a105.834 105.834 0 01-12.094 9.82 106.514 106.514 0 00-16.467-14.077c-.037-7.289.819-16.044 3.736-25.383 2.75-8.738 6.532-15.598 9.955-20.627 5.722 1.946 11.719-.226 14.088-5.477 2.699-5.953-.256-13.593-6.623-17.06-6.342-3.487-13.674-1.486-16.359 4.464-2.368 5.252-.368 11.812 4.518 15.669-1.529 5.89-4.202 13.407-8.978 21.172-5.271 8.568-11.265 14.469-16.011 18.298-7.419-3.402-15.187-5.89-23.172-7.359.22-3.375.777-6.863 1.773-10.412a50.941 50.941 0 012.869-7.664c6.025.916 11.64-2.444 13.063-8.178 1.614-6.409-2.601-13.373-9.407-15.543-6.806-2.171-13.618 1.261-15.229 7.68-1.404 5.638 1.684 11.704 7.071 14.561a81 81 0 01-1.225 8.913 83.417 83.417 0 01-2.543 10.045 61.234 61.234 0 00-2.394-.307 92.78 92.78 0 00-28.521.965 98.84 98.84 0 01-7.733-13.954 100.62 100.62 0 01-8.027-28.082c5.229-2.649 8.138-8.473 6.671-14.107-1.69-6.494-8.547-10.268-15.32-8.429-6.786 1.843-10.917 8.6-9.227 15.094 1.492 5.731 7.015 9.335 12.951 8.838a91.415 91.415 0 017.703 28.977 91.164 91.164 0 01.125 15.062 93.938 93.938 0 00-24.435 12.495 43.512 43.512 0 01-4.757-5.611c-3.058-4.319-5.01-8.613-6.301-12.278 4.517-4.427 5.608-11.436 2.304-16.477-3.64-5.541-11.223-6.59-16.943-2.337-5.706 4.249-7.39 12.188-3.736 17.727 3.148 4.78 9.218 6.207 14.49 3.78a78.008 78.008 0 017.601 11.249 73.109 73.109 0 013.407 6.899c-6.599 5.208-12.481 11.259-17.588 17.977a95.933 95.933 0 01-12.642-6.524c-9.993-6.143-17.428-13.208-22.63-19.07 2.616-5.595 1.587-12.309-2.773-15.944-4.993-4.158-12.455-2.713-16.667 3.225-4.197 5.936-3.562 14.118 1.417 18.278 4.427 3.669 10.748 2.965 15.076-1.348 6.206 3.471 14.628 9.317 22.45 18.884 3.585 4.374 6.436 8.799 8.736 13.022a118.023 118.023 0 00-2.243 3.989 111.18 111.18 0 00-8.626 21.57 70.337 70.337 0 01-7.669-.703c-8.669-1.284-15.831-3.978-21.192-6.564.333-6.376-3.135-12.215-8.475-13.706-6.053-1.699-12.248 2.867-13.827 10.196-1.594 7.329 2.039 14.645 8.119 16.335 5.325 1.492 10.753-1.858 13.064-7.669a74.29 74.29 0 0121.472 5.333 78.913 78.913 0 016.886 3.266c-2.657 12.025-3.396 24.719-1.965 37.594a124.857 124.857 0 01-14.986 4.56 125.105 125.105 0 01-21.424 3.127c-1.823-6.442-7.23-10.779-12.809-9.925-6.142.94-10.148 7.783-8.957 15.284 1.204 7.498 7.144 12.815 13.272 11.875 5.466-.838 9.217-6.348 9.154-12.84a133.549 133.549 0 0136.969-3.851 113.72 113.72 0 001.907 8.621 117.604 117.604 0 006.942 19.522c-4.208 5.111-10.229 11.246-18.532 16.661a78.499 78.499 0 01-19.859 9.311c-3.552-5.204-9.577-7.416-14.455-4.937-5.55 2.825-7.503 10.685-4.34 17.55 3.165 6.866 10.242 10.137 15.792 7.312 4.812-2.447 6.905-8.648 5.34-14.718a123.727 123.727 0 0119.212-10.837 120.952 120.952 0 0123.557-7.822 110.11 110.11 0 0017.788 21.965 66.381 66.381 0 01-6.064 7.601 64.387 64.387 0 01-13.161 10.897c-4.369-4.402-10.644-5.322-14.96-1.866-4.907 3.943-5.405 12.104-1.089 18.219 2.713 3.837 6.682 5.971 10.479 6.037 2.239.05 4.423-.623 6.253-2.09a9.652 9.652 0 001.463-1.472c3.292-4.01 3.446-10.512.237-15.804a93.384 93.384 0 0113.083-10.637 91.147 91.147 0 019.669-5.63 103.028 103.028 0 0012.835 9.073c.419.257.851.509 1.263.742-.882 6.407-2.645 14.382-6.202 22.946-3.487 8.386-7.671 14.937-11.38 19.77-5.568-2.314-11.637-.584-14.331 4.432-3.081 5.722-.604 13.55 5.533 17.485 6.106 3.93 13.581 2.48 16.648-3.239 2.678-4.967 1.16-11.528-3.303-15.733a117.284 117.284 0 0110.108-20.601 113.34 113.34 0 0114.909-19.097c8.904 3.703 18.304 6.105 27.91 7.043a85.98 85.98 0 011.082 11.983 88.08 88.08 0 01-2.628 23.281c-5.941.307-10.772 4.599-11.287 10.445-.573 6.635 4.643 12.771 11.655 13.708 6.998.941 13.148-3.686 13.746-10.339.504-5.773-3.361-11.167-9-13.079a124.784 124.784 0 011.264-23.511 118.661 118.661 0 012.47-12.068 92.319 92.319 0 0021.932-2.19 167.105 167.105 0 017.947 19.842 165.887 165.887 0 016.768 29.495c-5.199 2.649-8.094 8.469-6.631 14.09 1.69 6.494 8.546 10.266 15.347 8.42 6.773-1.839 10.89-8.592 9.2-15.085-1.458-5.599-6.77-9.181-12.549-8.871a193.357 193.357 0 01-8.509-29.033 195.037 195.037 0 01-3.222-21.104 93.001 93.001 0 0020.99-9.638 86.386 86.386 0 012.672 3.007 86.684 86.684 0 0112.509 19.353c-4.085 4.401-5.02 11.054-1.868 15.903 3.59 5.573 11.173 6.679 16.922 2.483 5.734-4.2 7.48-12.124 3.877-17.693-3.19-4.943-9.523-6.366-14.923-3.698-3.88-4.155-8.829-10.677-12.331-19.796a51.925 51.925 0 01-1.18-3.352c7.05-5.056 13.369-11.056 18.868-17.793a131.04 131.04 0 0117.15 10.229c9.217 6.483 16.488 13.368 22.013 19.397-2.565 5.57-1.52 12.228 2.805 15.846 5.006 4.149 12.453 2.705 16.665-3.233 4.199-5.931 3.565-14.109-1.416-18.276-4.318-3.587-10.479-3-14.782 1.068a161.144 161.144 0 01-23.021-17.98 163.212 163.212 0 01-13.798-14.628 110.115 110.115 0 005.834-9.726 109.81 109.81 0 007.322-17.291c6.539.189 14.23.977 22.695 2.996a113.837 113.837 0 0121.074 7.236c-.32 6.255 3.027 12.021 8.266 13.577 6.039 1.814 12.308-2.637 14.015-9.926 1.704-7.299-1.826-14.668-7.865-16.483-5.275-1.58-10.753 1.629-13.163 7.342a84.61 84.61 0 01-21.41-5.655 89.584 89.584 0 01-20.299-11.628 114.886 114.886 0 002.218-18.33 76.835 76.835 0 019.389-1.579 77.616 77.616 0 0121.931.846c1.149 6.272 5.816 11.033 11.261 11.068 6.222.043 11.138-6.062 10.982-13.641-.17-7.576-5.337-13.75-11.573-13.789-5.461-.043-9.93 4.683-10.823 10.987a70.958 70.958 0 01-21.866.476 72.912 72.912 0 01-9.249-1.878 115.673 115.673 0 00-1.712-17.159 196.021 196.021 0 0115.873-5.096 192.15 192.15 0 0127.46-5.435c2.499 5.663 7.873 9.031 13.049 7.811 6.041-1.445 9.552-8.612 7.818-16.005-1.72-7.397-8.003-12.229-14.03-10.789z" fill="#FFDEE5"/></g><path d="M376.392 340.467c-.048 6.247 4.613 11.633 10.901 13.165.907 9.67 1.37 20.719.886 32.847a252.606 252.606 0 01-1.53 19.156 107.968 107.968 0 00-19.132 1.119 61.66 61.66 0 01-6.799-11.517c-3.664-8.027-5.058-15.538-5.532-21.336 6.086-2.838 9.529-9.366 7.848-15.614-1.892-7.045-9.546-11.087-17.098-8.997-7.555 2.072-12.155 9.447-10.263 16.492 1.73 6.414 8.239 10.339 15.101 9.412 2.845 5.069 5.968 12.614 6.374 21.951.207 4.603-.3 8.64-.994 11.912a105.208 105.208 0 00-22.816 8.844 127.819 127.819 0 01-10.949-14.344 131.241 131.241 0 01-11.908-22.669c4.868-4.45 6.374-11.544 3.246-17.028-3.585-6.299-11.953-8.064-18.671-3.964-6.717 4.1-9.245 12.555-5.651 18.854 3.117 5.468 9.843 7.532 15.953 5.276a132.94 132.94 0 0113.423 21.738 133.997 133.997 0 016.854 16.619 109.202 109.202 0 00-18.22 14.511 82.446 82.446 0 01-24.552-11.743c-8.088-5.703-14.035-12.02-18.234-17.389 3.375-5.912 2.684-13.356-1.999-17.595-5.306-4.821-13.708-3.729-18.77 2.465-5.075 6.161-4.887 15.067.419 19.871 4.684 4.239 11.766 3.911 16.85-.489 5.534 3.475 12.415 8.729 19.024 16.442a86.84 86.84 0 0114.392 23.567 116.6 116.6 0 00-13.141 24.1 50.342 50.342 0 01-10.012-5.089 54.082 54.082 0 01-6.98-5.52c2.415-6.561.436-13.923-4.966-17.232-6.033-3.725-14.07-1.004-17.938 6.072-3.87 7.075-2.117 15.816 3.927 19.54 5.311 3.26 12.167 1.552 16.373-3.713a79.537 79.537 0 018.642 4.026 85.142 85.142 0 019.453 5.853 75.462 75.462 0 00-.903 2.625c-3.461 10.266-5.558 21.214-6.114 32.627a91.86 91.86 0 01-15.927 4.644c-11.919 2.32-22.341 1.882-30.183.798-1.361-6.713-6.485-11.733-12.505-11.737-6.938-.003-12.429 6.656-12.265 14.88.164 8.241 5.922 14.923 12.86 14.927 6.124.003 11.113-5.194 12.088-12.072a83.508 83.508 0 0131.001-.166 85.978 85.978 0 0115.15 4.311 123.492 123.492 0 006.475 31.405c-2.068 1.378-4.242 2.623-6.814 3.734-5.094 2.191-9.89 3.135-13.89 3.515-3.322-6.431-10.086-9.741-15.967-7.485-6.466 2.489-9.402 10.778-6.553 18.522 2.848 7.727 10.398 11.984 16.866 9.479 5.58-2.157 8.521-8.618 7.393-15.315a73.991 73.991 0 0113.179-5.293 67.5 67.5 0 017.772-1.823 122.576 122.576 0 0013.678 25.261 107.43 107.43 0 01-9.688 12.406 103.937 103.937 0 01-24.763 20.024c-4.967-4.621-11.962-5.439-16.693-1.571-5.414 4.433-5.816 13.322-.902 19.854 4.916 6.516 13.288 8.215 18.7 3.798 4.782-3.935 5.646-11.311 2.391-17.494 5.025-6.011 12.985-13.832 24.531-19.874a78.775 78.775 0 0115.241-6.056 133.689 133.689 0 003.447 3.723c5.926 6.068 12.462 11.504 19.51 16.16a89.04 89.04 0 01-2.61 8.489 87.443 87.443 0 01-11.851 22.091c-6.318-2.263-13.041-.057-15.863 5.557-3.209 6.362-.164 14.737 6.801 18.695 6.961 3.975 15.207 2.018 18.414-4.376 2.82-5.598.804-12.743-4.455-17.083 1.998-6.445 5.249-14.484 10.686-22.772a89.422 89.422 0 014.988-6.843c11.411 6.569 23.97 11.161 37.249 13.345.575 5.666.919 11.78.856 18.343a164.798 164.798 0 01-2.18 25.22c-6.919.162-12.616 5.01-13.144 11.589-.581 7.244 5.293 13.81 13.118 14.678 7.825.852 14.638-4.312 15.216-11.539.516-6.446-4.083-12.33-10.615-14.178a176.316 176.316 0 011.8-25.303 173.912 173.912 0 013.514-17.759 103.3 103.3 0 009.128.387c7.301.004 14.426-.706 21.32-2.098a102.525 102.525 0 0112.123 25.941 103.569 103.569 0 014.414 25.273c-6.105 2.489-9.822 8.668-8.545 14.932 1.458 7.129 8.862 11.668 16.539 10.111 7.679-1.558 12.72-8.616 11.262-15.745-1.261-6.181-6.966-10.388-13.448-10.408a161.849 161.849 0 01-6.107-24.991 160.63 160.63 0 01-2.003-29.027c9.487-3.301 18.367-7.948 26.466-13.676a79.039 79.039 0 016.125 9.125c3.74 6.498 6.11 12.73 7.67 18.147-5.504 3.652-7.985 10.496-5.589 16.412 2.74 6.73 10.809 9.709 18.02 6.622 4.525-1.941 7.652-5.811 8.661-10.097.606-2.525.473-5.2-.545-7.709a11.76 11.76 0 00-1.115-2.094c-3.207-4.92-9.696-7.017-15.805-4.943a118.21 118.21 0 01-7.428-17.981 119.152 119.152 0 01-3.251-12.629 109.253 109.253 0 0012.295-11.873 41.09 41.09 0 001.058-1.212 95.146 95.146 0 0121.494 13.818 99.257 99.257 0 0117.019 18.751c-3.705 5.63-3.475 13.024.891 17.562 4.978 5.186 13.452 4.692 18.925-1.103 5.462-5.763 5.862-14.668.883-19.838-4.321-4.505-11.284-4.724-16.613-.906a129.102 129.102 0 01-18.17-17.554 134.53 134.53 0 01-15.467-22.555 117.828 117.828 0 0014-29.566 79.72 79.72 0 0112.298 2.316 86.053 86.053 0 0122.718 9.865c-1.168 6.828 1.941 13.575 7.681 15.887 6.518 2.612 13.973-1.488 16.655-9.162 2.682-7.658-.435-16-6.965-18.645-5.669-2.279-12.045.508-15.364 6.338-6.728-1.648-14.699-4.261-23.287-8.386a119.052 119.052 0 01-11.501-6.369 120.956 120.956 0 003.248-25.518 152.603 152.603 0 0121.892-3.145 151.724 151.724 0 0131.288 1.046c1.368 6.68 6.491 11.684 12.497 11.687 6.938.004 12.428-6.656 12.263-14.913-.164-8.225-5.92-14.89-12.858-14.894-5.982-.003-10.897 4.962-12.021 11.607-8.91 1.109-19.454 1.701-31.257 1.064a179.61 179.61 0 01-21.984-2.587 122.842 122.842 0 00-4.463-26.652 85.045 85.045 0 013.682-2.142c8.354-4.631 16.223-7.119 22.534-8.461 3.403 5.933 9.849 8.96 15.5 6.82 6.485-2.422 9.479-10.694 6.695-18.455-2.794-7.744-10.314-12.068-16.799-9.629-5.754 2.157-8.755 8.918-7.418 15.83-5.134 3.171-12.91 6.855-22.933 8.129-1.242.165-2.46.281-3.659.347a122.36 122.36 0 00-13.175-26.657 143.162 143.162 0 0114.527-16.424 138.813 138.813 0 0124.937-19.226c4.955 4.555 11.897 5.34 16.603 1.504 5.409-4.45 5.809-13.322.894-19.854-4.911-6.515-13.278-8.215-18.698-3.798-4.673 3.835-5.614 10.996-2.599 17.078a168.066 168.066 0 01-23.764 20.789 161.293 161.293 0 01-18.111 11.321 125.145 125.145 0 00-8.315-9.491c-4.8-4.92-9.996-9.426-15.538-13.416 1.813-7.359 4.514-15.848 8.643-24.851a134.018 134.018 0 0112.497-21.758c6.199 2.213 12.818.123 15.681-5.358 3.321-6.312.41-14.737-6.483-18.828-6.904-4.091-15.178-2.268-18.499 4.044-2.896 5.515-1.035 12.676 4.101 17.099-2.235 6.511-5.66 14.418-10.994 22.606-5.535 8.504-11.527 14.93-16.713 19.58a112.272 112.272 0 00-17.849-7.935c.046-3.522.271-7.26.747-11.115 1.23-9.951 3.749-18.24 6.296-24.619 6.581.552 12.519-3.333 13.906-9.496 1.588-7.044-3.32-14.423-10.966-16.487-7.648-2.048-15.128 1.985-16.716 9.046-1.399 6.179 2.235 12.644 8.342 15.522-.395 6.762-1.639 15.451-4.952 24.936a89.788 89.788 0 01-4.182 9.933 107.258 107.258 0 00-17.65-3.133 260.676 260.676 0 01-1.174-19.506 254.266 254.266 0 011.364-32.747c6.304-1.159 11.02-6.257 11.081-12.488.05-7.277-6.273-13.378-14.125-13.598-7.853-.237-14.263 5.459-14.315 12.719z" fill="#FFE8E8"/><g filter="url(#filter1_d)"><path d="M520.684 433.783c-1.687.638-2.599 2.593-2.287 4.633a64.21 64.21 0 01-8.739 3.695 66.363 66.363 0 01-5.331 1.543 38.161 38.161 0 00-2.506-5.603 17.591 17.591 0 012.317-3.235 17.008 17.008 0 015.105-3.882c1.465 1.523 3.618 1.871 5.106.716 1.679-1.301 1.885-4.011.452-6.051-1.428-2.042-3.942-2.647-5.621-1.346-1.526 1.187-1.833 3.543-.793 5.497-1.037 1.38-2.707 3.102-5.174 4.198-1.215.542-2.36.812-3.32.946a35.99 35.99 0 00-5.008-5.897 37.639 37.639 0 012.599-4.771 36.862 36.862 0 014.729-5.927c1.759.991 3.841.7 4.957-.808 1.282-1.729.794-4.415-1.084-5.995-1.877-1.58-4.444-1.453-5.725.279-1.113 1.503-.893 3.729.418 5.32a38.165 38.165 0 01-4.305 6.283 36.556 36.556 0 01-3.683 3.784 34.554 34.554 0 00-6.004-3.932 27.852 27.852 0 01.332-8.566 26.78 26.78 0 012.58-7.267c1.98.392 3.904-.592 4.505-2.435.687-2.089-.575-4.487-2.825-5.353-2.243-.874-4.618.112-5.3 2.2-.602 1.843.303 3.925 2.073 4.986a26.394 26.394 0 01-2.234 7.404 24.818 24.818 0 01-4.685 6.763 32.736 32.736 0 00-8-1.412 16.863 16.863 0 01.216-3.524c.167-.969.406-1.858.682-2.663 2.044.037 3.797-1.324 4.065-3.284.308-2.193-1.35-4.311-3.7-4.729-2.35-.418-4.5 1.019-4.807 3.215-.265 1.927.984 3.799 2.886 4.506.025.949.001 1.954-.088 3.004a28.008 28.008 0 01-.487 3.438 19.849 19.849 0 00-.81.004 31.64 31.64 0 00-9.486 1.579 31.888 31.888 0 01-3.084-4.277 32.598 32.598 0 01-3.691-8.94c1.65-1.108 2.41-3.164 1.718-4.964-.798-2.074-3.223-3.021-5.418-2.113-2.199.91-3.334 3.329-2.536 5.403.705 1.831 2.678 2.78 4.642 2.354a29.623 29.623 0 013.615 9.25c.359 1.76.533 3.427.585 4.979a32.677 32.677 0 00-7.706 5.215 13.978 13.978 0 01-1.79-1.647 16.03 16.03 0 01-2.546-3.785c1.348-1.665 1.46-4.033.175-5.555-1.414-1.674-3.984-1.686-5.74-.025-1.751 1.658-2.027 4.36-.608 6.032 1.223 1.443 3.301 1.647 4.973.611a25.15 25.15 0 012.943 3.387c.519.708.973 1.421 1.386 2.133a34.526 34.526 0 00-5.223 6.727 31.55 31.55 0 01-4.455-1.601 32.877 32.877 0 01-8.242-5.312c.672-1.968.086-4.144-1.5-5.155-1.816-1.155-4.255-.348-5.447 1.804-1.187 2.15-.68 4.83 1.132 5.987 1.61 1.018 3.694.506 4.983-1.112a25.468 25.468 0 018.175 5.258 26.886 26.886 0 013.385 3.924 45.11 45.11 0 00-.605 1.419 37.764 37.764 0 00-2.102 7.52c-.818.078-1.681.119-2.585.107a24.528 24.528 0 01-7.31-1.237c-.119-2.125-1.487-3.904-3.323-4.162-2.082-.295-3.985 1.49-4.248 3.985-.268 2.496 1.208 4.757 3.299 5.048 1.831.259 3.522-1.09 4.084-3.115a24.85 24.85 0 019.776 1.593 38.07 38.07 0 00.699 12.53 43.354 43.354 0 01-4.838 2.171 43.024 43.024 0 01-7.039 1.981c-.841-2.051-2.802-3.248-4.633-2.719-2.017.582-3.107 3.024-2.44 5.454.673 2.428 2.847 3.926 4.859 3.344 1.794-.519 2.848-2.508 2.593-4.654a45.951 45.951 0 0112.201-2.907c.275.928.594 1.85.948 2.769a38.013 38.013 0 003.02 6.155 28.474 28.474 0 01-5.585 6.332 27.228 27.228 0 01-6.294 3.959c-1.373-1.565-3.464-2.031-5.003-.995-1.75 1.18-2.119 3.867-.816 6 1.304 2.133 3.784 2.903 5.535 1.723 1.518-1.023 1.993-3.168 1.252-5.108a43.102 43.102 0 016.023-4.435 41.89 41.89 0 017.581-3.629 35.545 35.545 0 006.729 6.484 22.87 22.87 0 01-1.75 2.783 22.352 22.352 0 01-4 4.188c-1.617-1.264-3.745-1.291-5.061.043-1.496 1.522-1.368 4.245.293 6.079 1.044 1.15 2.445 1.68 3.715 1.535a3.302 3.302 0 002.447-1.52c.955-1.473.772-3.631-.49-5.241a32.382 32.382 0 013.984-4.098 31.778 31.778 0 013.024-2.291 33.572 33.572 0 005.06 2.626 31.158 31.158 0 01-1.243 7.868 30.039 30.039 0 01-3.086 7.046c-1.942-.52-3.906.321-4.624 2.1-.822 2.03.286 4.511 2.477 5.543 2.18 1.031 4.623.221 5.44-1.808.715-1.762-.028-3.867-1.669-5.061a39.912 39.912 0 012.631-7.265 39.074 39.074 0 014.289-6.979 32.593 32.593 0 009.57 1.099c.328 1.186.611 2.495.793 3.918a29.252 29.252 0 01-.038 7.821c-1.972.364-3.43 1.998-3.391 3.956.048 2.221 2.01 4.022 4.384 4.022 2.37.002 4.256-1.801 4.216-4.029-.04-1.933-1.524-3.548-3.476-3.931a41.316 41.316 0 01-.425-7.838 39.69 39.69 0 01.39-4.103 31.58 31.58 0 007.242-1.694 53.932 53.932 0 016.69 15.68c-1.64 1.106-2.397 3.16-1.706 4.956.798 2.075 3.223 3.02 5.426 2.109 2.195-.908 3.326-3.325 2.528-5.399-.689-1.789-2.591-2.74-4.509-2.382a62.628 62.628 0 01-5.723-16.076 32.3 32.3 0 006.66-4.117c.332.278.666.572 1 .877a27.897 27.897 0 014.873 5.854c-1.205 1.637-1.277 3.88-.05 5.345 1.399 1.686 3.97 1.717 5.738.075 1.762-1.644 2.06-4.343.656-6.028-1.243-1.494-3.408-1.686-5.115-.564a19.701 19.701 0 01-4.829-6.007 16.811 16.811 0 01-.515-1.058 34.154 34.154 0 005.657-6.722 42.97 42.97 0 016.094 2.628 44.12 44.12 0 018.046 5.447c-.655 1.957-.066 4.115 1.508 5.121 1.821 1.152 4.254.346 5.446-1.806 1.188-2.148.682-4.827-1.131-5.986-1.571-.997-3.606-.53-4.896 1.006a52.337 52.337 0 01-8.332-4.934 52.52 52.52 0 01-5.133-4.232 37.488 37.488 0 001.596-3.477 37.085 37.085 0 001.821-6.046 37.693 37.693 0 017.684-.011c2.795.279 5.252.84 7.296 1.465.118 2.084 1.443 3.844 3.248 4.128 2.081.334 4.013-1.416 4.32-3.904.306-2.491-1.138-4.774-3.219-5.108-1.818-.29-3.531 1.014-4.129 3.011a28.254 28.254 0 01-7.351-.926 29.37 29.37 0 01-7.195-2.952c.191-2.028.221-4.089.08-6.164a26.258 26.258 0 0110.428-1.626c.61 2.025 2.34 3.394 4.158 3.166 2.079-.261 3.499-2.499 3.174-5-.329-2.5-2.277-4.315-4.36-4.053-1.824.227-3.145 1.988-3.217 4.114a24.186 24.186 0 01-7.281 1.124 24.66 24.66 0 01-3.155-.213 37.84 37.84 0 00-1.19-5.604 68.221 68.221 0 015.115-2.388 66.186 66.186 0 018.97-3.011c1.038 1.764 2.954 2.641 4.637 2.009 1.965-.745 2.878-3.273 2.033-5.643-.841-2.372-3.112-3.694-5.072-2.951z" fill="#FFD3DC"/></g><g opacity=".62"><path d="M501.202 732.408c-33.707 15.055-68.255 23.114-106.111 17.752-42.195-5.982-80.992-41.697-104.09-78.222-8.582-13.566-15.739-28.866-16.112-45.04-.85-37.364 31.981-43.453 60.538-39.062 16.097 2.467 31.209 9.335 46.15 16.139 24.807 11.305 53.283 15.918 75.97 32.267 7.614 5.503 13.524 12.302 22.187 16.124 13.475 5.951 28.533 8.255 42.317 13.583 11.771 4.574 25.126 12.448 26.092 25.63.975 13.52-11.681 22.907-22.959 28.968-7.981 4.314-15.951 8.289-23.982 11.861z" fill="url(#paint0_linear)"/><path d="M339.065 259.242c50.358-92.16 165.15-134.662 262.685-106.781 47.032 13.452 87.893 44.781 125.86 77.562 33.467 28.892 66.174 60.252 90.361 98.489 16.514 26.1 29.272 57.795 38.809 87.523 14.264 44.513 8.452 103.273-46.795 102.204-12.962-.25-24.469-4.526-36.834-8.133-10.003-2.926-19.409-.276-29.656-1.393-25.793-2.806-51.061-11.347-75.117-21.673-49.026-21.066-94.586-50.909-144.744-68.951-41.104-14.762-84.32-21.106-127.319-18.688-18.14 1.023-37.115 3.48-53.96-4.193-41.52-18.931-27.664-77.294-15.051-110.405a202.269 202.269 0 0111.761-25.561z" fill="url(#paint1_linear)"/><path d="M785.036 246.787c9.992 8.448 48.471 30.858 47.104 2.014-.35-7.185-3.915-13.975-8.463-18.987-5.204-5.755-10.84-8.604-15.071-15.415-5.168-8.22-10.931-15.893-17.212-22.919-12.86-14.638-27.606-27.996-44.716-33.335-12-3.739-31.698-1.478-36.102 14.75-6.417 23.625 28.456 25.858 39.605 33.684 10.58 7.406 17.234 20.8 25.945 31.247a71.935 71.935 0 008.91 8.961z" fill="url(#paint2_linear)"/><path d="M610.222 228.667c20.683 11.23 36.863 28.897 55.983 42.772 31.831 23.096 73.376 25.784 109.072 41.058 36.398 15.585 64.897 41.437 79.733 80.222 19.163 50.062 25 110.582 15.609 163.74-10.344 58.514-41.63 98.801-89.567 127.242-47.909 28.424-102.161 43.543-156.948 49.196a410.2 410.2 0 01-15.886 1.334c-119.353 7.677-281.505-27.736-331.971-161.649a279.824 279.824 0 01-1.358-3.69 211.59 211.59 0 01-10.695-46.222c-6.591-55.88-1.814-118.26 12.894-171.86 9.889-36.085 34.516-67.542 61.2-90.487 37.491-32.234 85.315-42.685 133.203-49.074 35.46-4.73 75.488-8.032 110.246 4.496a204.032 204.032 0 0128.485 12.922z" fill="url(#paint3_linear)"/></g><path d="M545.615 431.812c1.48 3.655 5.446 5.41 8.86 3.919l14.058-6.138c7.157-3.125 14.938-4.455 22.725-3.794a12.625 12.625 0 006.964-1.417c5.951-3.114 8.759-10.619 6.494-17.352-2.659-7.904-10.949-11.816-18.046-8.718a13.054 13.054 0 00-4.834 3.651c-5.149 6.208-11.432 11.239-18.662 14.396l-14.056 6.137c-3.414 1.49-4.982 5.661-3.503 9.316z" fill="#FB4C47"/><path d="M479.249 511.351c-2.86-1.266-6.096.147-7.227 3.155l-4.657 12.388c-2.371 6.306-6.087 11.927-10.905 16.363-1.437 1.322-2.565 3.071-3.202 5.166-1.687 5.552.843 11.777 5.85 14.393 5.878 3.072 12.775.266 15.126-5.987.637-1.694.872-3.46.753-5.18-.477-6.901.344-13.805 2.739-20.175l4.656-12.385c1.13-3.009-.272-6.473-3.133-7.738zM521.255 399.627c2.994 1.324 6.379-.154 7.563-3.302l4.873-12.962c2.481-6.599 6.371-12.482 11.412-17.123 1.503-1.384 2.684-3.214 3.35-5.407 1.766-5.809-.882-12.323-6.122-15.061-6.15-3.214-13.368-.278-15.828 6.265a12.875 12.875 0 00-.788 5.42c.499 7.223-.36 14.446-2.865 21.113l-4.873 12.96c-1.183 3.148.284 6.773 3.278 8.097z" fill="#C63F3B"/><path d="M520.899 497.57c-3.413 1.49-4.982 5.661-3.502 9.316l6.092 15.051c3.101 7.662 4.525 15.948 4.07 24.196a15.179 15.179 0 001.487 7.421c3.065 6.382 10.202 9.525 16.501 7.267 7.395-2.65 10.903-11.362 7.828-18.96a14.657 14.657 0 00-3.547-5.209c-5.965-5.598-10.845-12.375-13.978-20.115l-6.091-15.048c-1.479-3.655-5.446-5.41-8.86-3.919z" fill="#FB4C47"/><path d="M549.826 536.652c-5.965-5.597-10.845-12.374-13.978-20.115l-6.091-15.048c-1.48-3.655-5.446-5.41-8.861-3.919-3.414 1.491-4.982 5.661-3.502 9.317l6.091 15.048c3.133 7.74 8.013 14.517 13.978 20.115a14.674 14.674 0 013.547 5.21c1.981 4.895 1.226 10.249-1.536 14.15 2.004.298 4.079.126 6.071-.588 7.394-2.651 10.903-11.362 7.827-18.96a14.668 14.668 0 00-3.546-5.21z" fill="#C63F3B"/><path d="M444.795 443.673c11.152-4.869 16.275-18.495 11.442-30.435-4.832-11.939-17.791-17.671-28.943-12.801-11.152 4.869-16.274 18.495-11.442 30.434 4.833 11.94 17.791 17.672 28.943 12.802z" fill="#FF8F8C"/><path d="M427.299 400.436a21.21 21.21 0 00-5.762 3.735c9.259-.753 18.444 4.834 22.342 14.465 3.898 9.63 1.316 20.355-5.68 26.7a20.668 20.668 0 006.601-1.663c11.152-4.87 16.275-18.496 11.442-30.435-4.833-11.94-17.791-17.671-28.943-12.802z" fill="#FB4C47"/><path d="M530.564 521.451c36.414-15.9 53.141-60.392 37.361-99.378-15.78-38.985-58.092-57.7-94.506-41.801-36.414 15.9-53.141 60.392-37.361 99.378 15.78 38.985 58.092 57.7 94.506 41.801z" fill="#FB4C47"/><path d="M473.419 380.272a68.777 68.777 0 00-6.055 3.01c34.866-11.296 73.322 7.435 88.199 44.188 14.877 36.753.859 78.397-31.306 96.367a68.594 68.594 0 006.308-2.387c36.414-15.9 53.141-60.392 37.361-99.377-15.781-38.986-58.093-57.701-94.507-41.801z" fill="#C63F3B"/><path d="M522.755 430.275c7.397-3.23 10.794-12.267 7.589-20.186-3.205-7.919-11.8-11.721-19.197-8.491-7.396 3.229-10.794 12.267-7.589 20.186 3.206 7.919 11.8 11.72 19.197 8.491z" fill="#C63F3B"/><path d="M511.146 401.598a14.188 14.188 0 00-5.526 4.319c5.253.521 10.121 4.039 12.36 9.57 2.239 5.531 1.253 11.605-2.063 15.867a13.64 13.64 0 006.837-1.079c7.397-3.229 10.794-12.267 7.589-20.186-3.205-7.919-11.8-11.72-19.197-8.491zM493.515 498.434c5.007-2.186 7.307-8.304 5.137-13.665-2.17-5.361-7.988-7.934-12.995-5.748-5.007 2.186-7.307 8.304-5.137 13.665 2.17 5.361 7.988 7.934 12.995 5.748z" fill="#fff"/><path d="M573.396 496.865c6.828-2.982 9.964-11.324 7.005-18.634-2.959-7.31-10.892-10.819-17.72-7.838-6.828 2.982-9.964 11.324-7.005 18.634 2.959 7.31 10.892 10.819 17.72 7.838z" fill="#FB4C47"/><path d="M562.68 470.394c-2.252.984-4.1 2.553-5.463 4.474 4.621.676 8.838 3.864 10.821 8.762 1.983 4.899 1.225 10.258-1.543 14.16 2.275.332 4.648.06 6.901-.924 6.828-2.981 9.964-11.324 7.005-18.633-2.959-7.31-10.893-10.82-17.721-7.839zM458.359 469.91c1.48 3.655-.088 7.826-3.502 9.317l-14.058 6.138a48.604 48.604 0 00-18.509 14.209 13.044 13.044 0 01-5.847 4.177c-6.305 2.238-13.433-.929-16.481-7.321-3.577-7.503-.469-16.392 6.628-19.49a12.568 12.568 0 015.894-1.034c7.872.522 15.73-.621 22.96-3.777l14.056-6.137c3.413-1.491 7.38.263 8.859 3.918z" fill="#C63F3B"/><path d="M483.09 404.152c3.414-1.491 4.982-5.662 3.503-9.317l-6.092-15.05c-3.102-7.662-4.525-15.948-4.07-24.196a15.19 15.19 0 00-1.487-7.421c-3.065-6.382-10.202-9.525-16.501-7.268-7.395 2.651-10.904 11.362-7.828 18.96a14.648 14.648 0 003.547 5.21c5.964 5.598 10.844 12.375 13.977 20.115l6.092 15.048c1.478 3.655 5.446 5.409 8.859 3.919z" fill="#FB4C47"/><path d="M474.944 348.168c-3.064-6.382-10.202-9.525-16.5-7.268-2.631.943-4.767 2.655-6.293 4.81 4.335.644 8.335 3.491 10.431 7.856a15.184 15.184 0 011.487 7.42c-.455 8.249.968 16.534 4.07 24.196l6.092 15.051c1.479 3.655 5.446 5.409 8.86 3.919 3.414-1.491 4.982-5.662 3.503-9.317l-6.092-15.051c-3.102-7.662-4.525-15.947-4.07-24.195a15.178 15.178 0 00-1.488-7.421zM588.079 398.7a13.012 13.012 0 00-4.896 3.552c-.232.269-.468.533-.704.797 4.903.789 9.309 4.413 11.037 9.861 1.478 4.659.547 9.636-2.133 13.264.268.023.537.043.806.071 2.317.242 4.721-.15 6.987-1.28 6.002-2.995 8.94-10.436 6.792-17.206-2.522-7.947-10.741-12.016-17.889-9.059z" fill="#C63F3B"/><g opacity=".63"><path d="M643.077 566.019c1.112 1.651 3.256 2.063 4.789.919l6.314-4.71c3.214-2.399 6.924-3.974 10.843-4.555a6.497 6.497 0 003.297-1.523c2.619-2.252 3.227-6.328 1.406-9.425-2.137-3.635-6.643-4.618-9.831-2.24a6.9 6.9 0 00-2.011 2.389c-1.9 3.702-4.484 6.95-7.731 9.373l-6.313 4.71c-1.533 1.144-1.875 3.41-.763 5.062z" fill="#FFC700"/><path d="M613.156 604.674c-1.546-.296-2.999.788-3.246 2.422l-1.014 6.731c-.517 3.426-1.77 6.668-3.691 9.446a6.095 6.095 0 00-1.046 2.955c-.257 2.969 1.642 5.781 4.39 6.502 3.226.845 6.345-1.363 6.858-4.761a6.368 6.368 0 00-.167-2.674c-.954-3.39-1.266-6.933-.744-10.395l1.014-6.729c.246-1.634-.808-3.2-2.354-3.497zM622.309 543.971c1.619.311 3.139-.824 3.397-2.534l1.062-7.043c.54-3.585 1.852-6.978 3.862-9.885a6.38 6.38 0 001.094-3.092c.269-3.108-1.718-6.05-4.594-6.804-3.376-.885-6.64 1.426-7.176 4.982a6.67 6.67 0 00.174 2.798c.999 3.548 1.325 7.255.78 10.877l-1.062 7.042c-.257 1.71.845 3.348 2.463 3.659z" fill="#D09700"/><path d="M632.317 592.919c-1.533 1.144-1.875 3.411-.763 5.063l4.578 6.801a28.472 28.472 0 014.53 11.605 7.646 7.646 0 001.507 3.532c2.18 2.828 6.036 3.561 8.916 1.697 3.382-2.189 4.21-6.95 1.899-10.384a7.203 7.203 0 00-2.296-2.186c-3.532-2.097-6.65-4.909-9.005-8.407l-4.577-6.801c-1.112-1.652-3.256-2.064-4.789-.92z" fill="#FFC700"/><path d="M650.688 609.045c-3.532-2.097-6.65-4.909-9.005-8.407l-4.578-6.801c-1.111-1.652-3.255-2.064-4.789-.92-1.533 1.144-1.875 3.411-.763 5.063l4.578 6.801c2.354 3.498 5.473 6.31 9.005 8.407a7.203 7.203 0 012.296 2.186 7.684 7.684 0 01.712 7.245 6.384 6.384 0 002.941-1.004c3.381-2.189 4.21-6.95 1.899-10.384a7.214 7.214 0 00-2.296-2.186zM589.079 574.916c5.009-3.736 6.125-11.14 2.493-16.535-3.632-5.396-10.636-6.741-15.645-3.004-5.008 3.737-6.124 11.14-2.492 16.536 3.632 5.396 10.636 6.74 15.644 3.003z" fill="#D09700"/><path d="M575.928 555.377a11.13 11.13 0 00-2.461 2.539c4.5-1.46 9.624.255 12.553 4.607 2.93 4.352 2.768 10.01-.031 13.996 1.079-.35 2.122-.88 3.091-1.603 5.008-3.737 6.124-11.14 2.492-16.536-3.632-5.395-10.636-6.74-15.644-3.003z" fill="#FFC700"/><path d="M639.58 603.712c16.354-12.202 19.997-36.376 8.138-53.995-11.859-17.618-34.73-22.009-51.084-9.807-16.354 12.202-19.998 36.376-8.139 53.994 11.859 17.619 34.731 22.01 51.085 9.808z" fill="#FFC700"/><path d="M596.64 539.909a36.423 36.423 0 00-2.682 2.212c16.068-9.722 37.034-4.871 48.214 11.738 11.18 16.61 8.58 39.045-5.457 51.783a35.76 35.76 0 002.871-1.931c16.354-12.201 19.998-36.376 8.138-53.994-11.859-17.619-34.73-22.01-51.084-9.808z" fill="#D09700"/><path d="M622.146 561.712c1.21-.902 1.479-2.69.602-3.993-.877-1.303-2.568-1.628-3.778-.725-1.209.902-1.479 2.69-.602 3.993.877 1.303 2.569 1.627 3.778.725zM618.862 596.557c2.248-1.678 2.75-5.003 1.119-7.425-1.631-2.423-4.776-3.027-7.025-1.349-2.249 1.678-2.75 5.002-1.12 7.425 1.631 2.423 4.777 3.027 7.026 1.349zM602.75 573.993c3.443-2.569 4.21-7.659 1.713-11.368-2.497-3.709-7.312-4.634-10.755-2.065-3.443 2.569-4.21 7.659-1.714 11.368 2.497 3.709 7.312 4.634 10.756 2.065z" fill="#fff"/><path d="M658.201 586.421c3.067-2.288 3.75-6.82 1.526-10.124-2.223-3.304-6.512-4.127-9.578-1.839-3.067 2.288-3.75 6.821-1.527 10.124 2.224 3.304 6.513 4.127 9.579 1.839z" fill="#FFC700"/><path d="M650.15 574.458a6.94 6.94 0 00-2.236 2.874c2.355-.204 4.772.894 6.263 3.108a7.69 7.69 0 01.71 7.251 6.448 6.448 0 003.316-1.269c3.067-2.288 3.75-6.821 1.526-10.125-2.224-3.303-6.512-4.127-9.579-1.839zM598.516 586.429c1.111 1.652.77 3.919-.763 5.063l-6.314 4.71a25.677 25.677 0 00-7.675 9.262 6.88 6.88 0 01-2.457 2.77c-2.886 1.856-6.74 1.109-8.912-1.726-2.55-3.327-1.937-8.13 1.25-10.508a6.471 6.471 0 012.807-1.206c3.948-.661 7.715-2.151 10.962-4.574l6.313-4.71c1.533-1.144 3.677-.732 4.789.919z" fill="#D09700"/><path d="M603.902 550.702c1.533-1.144 1.875-3.41.763-5.062l-4.579-6.802a28.474 28.474 0 01-4.529-11.605 7.655 7.655 0 00-1.508-3.531c-2.179-2.828-6.036-3.562-8.916-1.697-3.381 2.189-4.21 6.95-1.899 10.384a7.214 7.214 0 002.296 2.186c3.532 2.096 6.65 4.909 9.005 8.407l4.578 6.801c1.111 1.651 3.256 2.063 4.789.919z" fill="#FFC700"/><path d="M594.047 523.703c-2.179-2.828-6.036-3.562-8.916-1.697a6.907 6.907 0 00-2.611 3.138c2.21-.186 4.485.767 5.975 2.701a7.647 7.647 0 011.507 3.531 28.475 28.475 0 004.53 11.605l4.578 6.802c1.112 1.652 3.256 2.064 4.79.92 1.533-1.144 1.875-3.411.763-5.062l-4.579-6.802a28.485 28.485 0 01-4.529-11.605 7.65 7.65 0 00-1.508-3.531z" fill="#D09700"/></g><path d="M688.409 486.661c-2.127-.549-4.235.826-4.707 3.071l-1.943 9.248c-.99 4.707-2.989 9.094-5.882 12.778-.862 1.098-1.465 2.46-1.688 4.006-.593 4.097 1.827 8.168 5.592 9.412 4.421 1.46 8.935-1.326 9.916-5.995a8.819 8.819 0 00-.02-3.725c-1.059-4.789-1.213-9.732-.214-14.488l1.944-9.246c.472-2.245-.87-4.511-2.998-5.061z" fill="#1DB776"/><path d="M674.979 425.105c1.52-.991 1.967-3.12 1-4.754l-3.986-6.729a27.193 27.193 0 01-3.68-11.281 7.301 7.301 0 00-1.242-3.44c-1.919-2.815-5.547-3.745-8.386-2.152-3.334 1.87-4.379 6.334-2.367 9.731a6.926 6.926 0 002.065 2.213c3.245 2.203 6.057 5.061 8.107 8.521l3.985 6.728c.968 1.634 2.985 2.155 4.504 1.163zM710.924 485.797c-1.59 1.038-2.058 3.265-1.046 4.975l4.171 7.042a28.448 28.448 0 013.85 11.805 7.661 7.661 0 001.3 3.6c2.009 2.945 5.805 3.919 8.776 2.252 3.488-1.957 4.582-6.629 2.477-10.184a7.24 7.24 0 00-2.161-2.315c-3.395-2.306-6.339-5.296-8.484-8.917l-4.17-7.041c-1.013-1.709-3.123-2.254-4.713-1.217z" fill="#128E5A"/><path d="M667.25 450.941c.472-2.246-.87-4.512-2.998-5.061l-8.761-2.263a29.341 29.341 0 01-12.175-6.519 7.87 7.87 0 00-3.814-1.878c-3.875-.718-7.661 1.761-8.752 5.73-1.281 4.659 1.444 9.509 5.867 10.652a7.426 7.426 0 003.512.059c4.492-1.019 9.149-1.076 13.655.088l8.759 2.263c2.127.549 4.235-.826 4.707-3.071z" fill="#1DB776"/><path d="M640.13 451.662c4.492-1.02 9.15-1.076 13.655.087l8.76 2.263c2.127.549 4.235-.825 4.707-3.071.472-2.246-.87-4.512-2.998-5.061l-8.76-2.263c-4.505-1.164-9.162-1.107-13.654-.088a7.426 7.426 0 01-3.512-.059c-2.85-.736-4.992-3.012-5.815-5.783a8.165 8.165 0 00-1.761 3.263c-1.281 4.66 1.444 9.51 5.867 10.652a7.422 7.422 0 003.511.06zM716.726 431.728c-1.542 7.335 2.842 14.738 9.792 16.533 6.95 1.795 13.834-2.697 15.375-10.032 1.542-7.336-2.842-14.738-9.792-16.534-6.95-1.795-13.834 2.697-15.375 10.033z" fill="#128E5A"/><path d="M741.895 438.23c.299-1.419.373-2.839.252-4.222-2.751 4.926-8.312 7.57-13.918 6.122-5.606-1.448-9.54-6.545-10.044-12.311a13.848 13.848 0 00-1.457 3.91c-1.542 7.336 2.842 14.738 9.792 16.533 6.95 1.795 13.834-2.696 15.375-10.032z" fill="#1DB776"/><path d="M653.349 447.351c-5.035 23.954 9.281 48.123 31.973 53.985 22.693 5.861 45.171-8.805 50.205-32.758 5.034-23.953-9.281-48.123-31.974-53.984-22.693-5.862-45.17 8.804-50.204 32.757z" fill="#1DB776"/><path d="M735.535 468.578c.288-1.372.51-2.744.673-4.113-6.576 21.544-27.775 34.264-49.169 28.738-21.393-5.526-35.338-27.323-32.647-49.871a46.992 46.992 0 00-1.036 4.019c-5.034 23.953 9.281 48.123 31.974 53.984 22.693 5.862 45.17-8.804 50.205-32.757z" fill="#128E5A"/><path d="M696.715 475.702c-1.022 4.865 1.886 9.775 6.495 10.965 4.61 1.191 9.175-1.788 10.198-6.654 1.023-4.865-1.885-9.775-6.495-10.965-4.609-1.191-9.175 1.788-10.198 6.654z" fill="#128E5A"/><path d="M713.417 480.012a9.577 9.577 0 00-.088-4.309c-1.985 2.459-5.181 3.663-8.401 2.831-3.219-.832-5.607-3.478-6.406-6.656a9.018 9.018 0 00-1.798 3.823c-1.022 4.865 1.886 9.775 6.495 10.965 4.61 1.191 9.175-1.788 10.198-6.654zM675.996 436.855c-.692 3.294 1.276 6.617 4.396 7.424 3.121.806 6.212-1.211 6.904-4.505.692-3.294-1.276-6.617-4.397-7.423-3.12-.806-6.211 1.21-6.903 4.504z" fill="#fff"/><path d="M650.057 477.608c-.944 4.492 1.741 9.025 5.996 10.124 4.256 1.099 8.471-1.651 9.415-6.143.944-4.492-1.741-9.024-5.996-10.123-4.256-1.1-8.471 1.651-9.415 6.142z" fill="#1DB776"/><path d="M665.472 481.588a8.854 8.854 0 00-.179-4.334c-1.843 2.087-4.675 3.08-7.527 2.344-2.852-.737-4.995-3.016-5.817-5.791a8.28 8.28 0 00-1.888 3.8c-.944 4.492 1.74 9.025 5.996 10.124 4.255 1.099 8.471-1.651 9.415-6.143zM700.471 429.266c-2.128-.549-3.47-2.815-2.998-5.061l1.944-9.247a32.854 32.854 0 00-.181-14.345 8.825 8.825 0 01.082-4.421c1.102-3.965 4.895-6.431 8.769-5.702 4.548.857 7.486 5.568 6.504 10.236a8.32 8.32 0 01-1.503 3.332c-2.859 3.777-4.968 8.135-5.967 12.891l-1.944 9.246c-.471 2.245-2.579 3.621-4.706 3.071z" fill="#128E5A"/><path d="M721.629 464.988c-.472 2.246.87 4.512 2.998 5.061l8.76 2.263a29.356 29.356 0 0112.176 6.519 7.88 7.88 0 003.814 1.879c3.875.717 7.66-1.762 8.751-5.731 1.281-4.659-1.444-9.509-5.866-10.652a7.426 7.426 0 00-3.512-.059c-4.492 1.019-9.15 1.076-13.655-.088l-8.76-2.263c-2.127-.549-4.234.826-4.706 3.071z" fill="#1DB776"/><path d="M749.375 480.708c3.876.717 7.661-1.762 8.752-5.731a8.831 8.831 0 00-.052-4.869c-1.733 1.953-4.34 2.958-6.99 2.468a7.87 7.87 0 01-3.814-1.879 29.356 29.356 0 00-12.176-6.519l-8.76-2.263c-2.128-.549-4.235.826-4.707 3.072-.472 2.245.87 4.511 2.997 5.061l8.761 2.263a29.36 29.36 0 0112.176 6.518 7.872 7.872 0 003.813 1.879zM689.695 519.187a8.83 8.83 0 00-.02-3.724c-.047-.211-.089-.423-.133-.634-1.949 2.227-5.021 3.222-8.05 2.221-2.591-.856-4.543-3.05-5.316-5.67-.098.129-.195.259-.295.387-.862 1.098-1.464 2.458-1.688 4.004-.591 4.095 1.827 8.164 5.591 9.407 4.419 1.46 8.93-1.325 9.911-5.991z" fill="#128E5A"/><defs><linearGradient id="paint0_linear" x1="272.184" y1="632.22" x2="320.397" y2="761.72" gradientUnits="userSpaceOnUse"><stop stop-color="#FFD8D8"/><stop offset="1" stop-color="#FFF8F8"/></linearGradient><linearGradient id="paint1_linear" x1="850.632" y1="309.233" x2="442.536" y2="103.24" gradientUnits="userSpaceOnUse"><stop stop-color="#FFF8F8"/><stop offset="1" stop-color="#FFCFCF"/></linearGradient><linearGradient id="paint2_linear" x1="833.056" y1="248.24" x2="687.99" y2="201.458" gradientUnits="userSpaceOnUse"><stop stop-color="#FFD7D7"/><stop offset="1" stop-color="#FFF9F9"/></linearGradient><linearGradient id="paint3_linear" x1="831.641" y1="663.097" x2="235.71" y2="389.834" gradientUnits="userSpaceOnUse"><stop stop-color="#FFCFCF"/><stop offset="1" stop-color="#FFF8F8"/></linearGradient><filter id="filter0_d" x="83.805" y="368.399" width="331.264" height="359.504" filterUnits="userSpaceOnUse" color-interpolation-filters="sRGB"><feFlood flood-opacity="0" result="BackgroundImageFix"/><feColorMatrix in="SourceAlpha" values="0 0 0 0 0 0 0 0 0 0 0 0 0 0 0 0 0 0 127 0"/><feOffset dy="4"/><feGaussianBlur stdDeviation="2"/><feColorMatrix values="0 0 0 0 0 0 0 0 0 0 0 0 0 0 0 0 0 0 0.13 0"/><feBlend in2="BackgroundImageFix" result="effect1_dropShadow"/><feBlend in="SourceGraphic" in2="effect1_dropShadow" result="shape"/></filter><filter id="filter1_d" x="398.969" y="380.29" width="150.33" height="155.858" filterUnits="userSpaceOnUse" color-interpolation-filters="sRGB"><feFlood flood-opacity="0" result="BackgroundImageFix"/><feColorMatrix in="SourceAlpha" values="0 0 0 0 0 0 0 0 0 0 0 0 0 0 0 0 0 0 127 0"/><feOffset dy="2"/><feGaussianBlur stdDeviation="10.5"/><feColorMatrix values="0 0 0 0 0.966667 0 0 0 0 0.864839 0 0 0 0 0.890296 0 0 0 1 0"/><feBlend in2="BackgroundImageFix" result="effect1_dropShadow"/><feBlend in="SourceGraphic" in2="effect1_dropShadow" result="shape"/></filter></defs></svg>